<?xml version="1.0" encoding="utf-8"?>
<!-- Generator: Adobe Illustrator 25.0.0, SVG Export Plug-In . SVG Version: 6.00 Build 0)  -->
<svg version="1.1" id="Layer_1" xmlns="http://www.w3.org/2000/svg" xmlns:xlink="http://www.w3.org/1999/xlink" x="0px" y="0px"
	 viewBox="0 0 595.28 841.89" style="enable-background:new 0 0 595.28 841.89;" xml:space="preserve">
<style type="text/css">
	.st0{fill:#FFFFFF;}
	.st1{fill:url(#SVGID_1_);}
	.st2{fill:url(#SVGID_2_);}
	.st3{fill:url(#SVGID_3_);}
	.st4{fill:url(#SVGID_4_);}
	.st5{fill:url(#SVGID_5_);}
	.st6{fill:url(#SVGID_6_);}
	.st7{fill:url(#SVGID_7_);}
	.st8{fill:url(#SVGID_8_);}
	.st9{fill:url(#SVGID_9_);}
	.st10{fill:url(#SVGID_10_);}
	.st11{fill:url(#SVGID_11_);}
	.st12{fill:url(#SVGID_12_);}
	.st13{fill:url(#SVGID_13_);}
	.st14{fill:url(#SVGID_14_);}
	.st15{fill:url(#SVGID_15_);}
	.st16{fill:url(#SVGID_16_);}
	.st17{fill:url(#SVGID_17_);}
	.st18{fill:url(#SVGID_18_);}
	.st19{fill:url(#SVGID_19_);}
	.st20{fill:url(#SVGID_20_);}
	.st21{fill:url(#SVGID_21_);}
	.st22{fill:url(#SVGID_22_);}
	.st23{fill:url(#SVGID_23_);}
	.st24{fill:url(#SVGID_24_);}
	.st25{fill:url(#SVGID_25_);}
	.st26{fill:url(#SVGID_26_);}
	.st27{fill:url(#SVGID_27_);}
	.st28{fill:url(#SVGID_28_);}
	.st29{fill:url(#SVGID_29_);}
	.st30{fill:url(#SVGID_30_);}
	.st31{fill:url(#SVGID_31_);}
	.st32{fill:url(#SVGID_32_);}
	.st33{fill:url(#SVGID_33_);}
	.st34{fill:url(#SVGID_34_);}
	.st35{fill:url(#SVGID_35_);}
	.st36{fill:url(#SVGID_36_);}
	.st37{fill:url(#SVGID_37_);}
	.st38{fill:url(#SVGID_38_);}
	.st39{fill:url(#SVGID_39_);}
	.st40{fill:url(#SVGID_40_);}
	.st41{fill:url(#SVGID_41_);}
	.st42{fill:url(#SVGID_42_);}
	.st43{fill:url(#SVGID_43_);}
	.st44{fill:url(#SVGID_44_);}
	.st45{fill:url(#SVGID_45_);}
	.st46{fill:url(#SVGID_46_);}
	.st47{fill:url(#SVGID_47_);}
	.st48{fill:url(#SVGID_48_);}
	.st49{fill:url(#SVGID_49_);}
	.st50{fill:url(#SVGID_50_);}
	.st51{fill:url(#SVGID_51_);}
	.st52{fill:url(#SVGID_52_);}
	.st53{fill:url(#SVGID_53_);}
	.st54{fill:url(#SVGID_54_);}
	.st55{fill:url(#SVGID_55_);}
	.st56{fill:url(#SVGID_56_);}
	.st57{fill:url(#SVGID_57_);}
	.st58{fill:url(#SVGID_58_);}
	.st59{fill:url(#SVGID_59_);}
	.st60{fill:url(#SVGID_60_);}
	.st61{fill:url(#SVGID_61_);}
	.st62{fill:url(#SVGID_62_);}
	.st63{fill:url(#SVGID_63_);}
	.st64{fill:url(#SVGID_64_);}
</style>
<rect width="595.28" height="841.89"/>
<g>
	<g>
		<linearGradient id="SVGID_1_" gradientUnits="userSpaceOnUse" x1="187.1662" y1="460.567" x2="191.201" y2="460.567">
			<stop  offset="0" style="stop-color:#CF6301"/>
			<stop  offset="0.2667" style="stop-color:#FFD31D"/>
			<stop  offset="0.3477" style="stop-color:#FFF076"/>
			<stop  offset="0.3939" style="stop-color:#FFFFA4"/>
			<stop  offset="0.4223" style="stop-color:#FFF68A"/>
			<stop  offset="0.4825" style="stop-color:#FFDF49"/>
			<stop  offset="0.503" style="stop-color:#FFD731"/>
			<stop  offset="0.6485" style="stop-color:#D97907"/>
			<stop  offset="0.7697" style="stop-color:#FFDE00"/>
			<stop  offset="0.804" style="stop-color:#FDD900"/>
			<stop  offset="0.8461" style="stop-color:#F7CA01"/>
			<stop  offset="0.8922" style="stop-color:#EEB103"/>
			<stop  offset="0.9408" style="stop-color:#E18F05"/>
			<stop  offset="0.9515" style="stop-color:#DE8606"/>
			<stop  offset="1" style="stop-color:#EA9600"/>
		</linearGradient>
		<path class="st1" d="M190.25,454.31c-3.66,1.95-3.13,7.87-2.96,9.18c0.03,0.2,0,0.41,0.04,0.6c0.78,3.91,3.87,2.49,3.87,2.49
			C188.19,461.33,190.25,454.31,190.25,454.31z"/>
		<linearGradient id="SVGID_2_" gradientUnits="userSpaceOnUse" x1="193.5928" y1="488.1531" x2="215.7193" y2="488.1531">
			<stop  offset="0" style="stop-color:#CF6301"/>
			<stop  offset="0.2667" style="stop-color:#FFD31D"/>
			<stop  offset="0.3477" style="stop-color:#FFF076"/>
			<stop  offset="0.3939" style="stop-color:#FFFFA4"/>
			<stop  offset="0.4223" style="stop-color:#FFF68A"/>
			<stop  offset="0.4825" style="stop-color:#FFDF49"/>
			<stop  offset="0.503" style="stop-color:#FFD731"/>
			<stop  offset="0.6485" style="stop-color:#D97907"/>
			<stop  offset="0.7697" style="stop-color:#FFDE00"/>
			<stop  offset="0.804" style="stop-color:#FDD900"/>
			<stop  offset="0.8461" style="stop-color:#F7CA01"/>
			<stop  offset="0.8922" style="stop-color:#EEB103"/>
			<stop  offset="0.9408" style="stop-color:#E18F05"/>
			<stop  offset="0.9515" style="stop-color:#DE8606"/>
			<stop  offset="1" style="stop-color:#EA9600"/>
		</linearGradient>
		<path class="st2" d="M202.04,473.81c0,0-10.24-1.57-8.17,11.74c0,0,0.26,6.5,6.88,11.95l-0.32-3.21c0,0,2.52,5.53,11.98,8.26
			c0,0-8.62-7.92-5.54-16.92c0,0,7.57,3.96,8.85-7.44v-0.29C215.72,477.9,205.48,473.49,202.04,473.81z"/>
		<linearGradient id="SVGID_3_" gradientUnits="userSpaceOnUse" x1="188.18" y1="461.0462" x2="405.3177" y2="461.0462">
			<stop  offset="0" style="stop-color:#CF6301"/>
			<stop  offset="0.2667" style="stop-color:#FFD31D"/>
			<stop  offset="0.3477" style="stop-color:#FFF076"/>
			<stop  offset="0.3939" style="stop-color:#FFFFA4"/>
			<stop  offset="0.4223" style="stop-color:#FFF68A"/>
			<stop  offset="0.4825" style="stop-color:#FFDF49"/>
			<stop  offset="0.503" style="stop-color:#FFD731"/>
			<stop  offset="0.6485" style="stop-color:#D97907"/>
			<stop  offset="0.7697" style="stop-color:#FFDE00"/>
			<stop  offset="0.804" style="stop-color:#FDD900"/>
			<stop  offset="0.8461" style="stop-color:#F7CA01"/>
			<stop  offset="0.8922" style="stop-color:#EEB103"/>
			<stop  offset="0.9408" style="stop-color:#E18F05"/>
			<stop  offset="0.9515" style="stop-color:#DE8606"/>
			<stop  offset="1" style="stop-color:#EA9600"/>
		</linearGradient>
		<path class="st3" d="M395.77,449.03c0,0-7.46-0.53-9.89-3.7c0,0,4.86,0.63,6.94-1.59c0,0,6.34-4.13,6.6-3.6
			c0,0,3.73-0.42,5.21,3.7c0,0,2.43-1.38-1.82-6.77l-8.92-6.65c-1.29-0.96-2.49-2.09-3.59-3.37c-1.64-1.91-4.06-4.62-4.68-4.69
			c0,0,0.87-3.91-3.12-5.29c0,0,6.34,0.11,8.25,2.86c0,0-1.74-7.62-9.46-11.42c0,0-6.94-6.66-18.49-6.14l-3.56,5.18
			c0,0-21.18-13.43-26.21-13.75c0,0,15.8-0.11,26.3,5.08l-5.03-9.31c0,0,20.02,3.7,29.32,17.03c0,0,3.15-27.37-33.31-35.06
			c0,0,11.74,10.15,11.61,11.53c0,0-7.95-6.77-30.03-5.54c0,0-18.93,0.46-32.18,14.61c0,0,18.05-6.15,24.48-4.46
			c0,0-15.93,3.37-27.42,19.11c-11.49-15.74-27.42-19.11-27.42-19.11c6.44-1.69,24.48,4.46,24.48,4.46
			c-13.25-14.15-32.18-14.61-32.18-14.61c-22.08-1.23-30.03,5.54-30.03,5.54c-0.13-1.38,11.61-11.53,11.61-11.53
			c-36.47,7.69-33.31,35.06-33.31,35.06c9.3-13.33,29.32-17.03,29.32-17.03l-5.03,9.31c10.5-5.18,26.3-5.08,26.3-5.08
			c-5.03,0.32-26.21,13.75-26.21,13.75l-3.56-5.18c-11.54-0.53-18.49,6.14-18.49,6.14c-7.72,3.81-9.46,11.42-9.46,11.42
			c1.91-2.75,8.25-2.86,8.25-2.86c-3.99,1.38-3.12,5.29-3.12,5.29c-0.62,0.07-3.04,2.77-4.68,4.69c-1.09,1.28-2.29,2.41-3.59,3.37
			l-8.92,6.65c-4.25,5.39-1.82,6.77-1.82,6.77c1.48-4.13,5.21-3.7,5.21-3.7c0.26-0.53,6.6,3.6,6.6,3.6
			c2.08,2.22,6.94,1.59,6.94,1.59c-2.43,3.17-9.89,3.7-9.89,3.7c-4.08-0.11-4.51,2.54-4.51,2.54c-3.39,9.31,3.73,15.55,3.73,15.55
			c6.77-2.12,15.98,5.31,15.98,5.31c3.41,4,5.43,0.62,5.43,0.62c1.14-3.54-0.63-10.3-0.63-10.3l10.6,6.46l-10.98-9.07
			c-3.91-4,0.5-2.77,0.5-2.77l15.27,8.92l-16.78-13.07c2.9-2.61,21.58,9.84,21.58,9.84l-8.71-8c6.31,2.61,10.85-2.31,10.85-2.31
			c7.32-11.07,10.85-3.69,10.85-3.69c2.19,2.39,2.29,5.6,1.73,8.44c-0.68,3.44-2.39,6.44-4.72,8.57l-9,8.22
			c-4.42,5.69-3.81,11.39-3.79,11.23c0.17-1.22,3.15-4,3.15-4c1.01-1.38,15.27-11.23,15.27-11.23c13-10.61,6.56-25.53,6.56-25.53
			c-6.94-17.69-18.17-23.38-18.17-23.38c4.16-0.46,11.36,3.84,11.36,3.84c0.13-2.92,6.69-6.31,6.69-6.31
			c-1.82-1.87-6.21-3.27-9.59-4.12c-3.89-0.98-8.03-1.71-11.89-0.55c-10.93,3.27-12.33,13.28-12.33,13.28
			c-5.05-1.54-11.74,0.31-11.74,0.31l5.43-6.92h-2.65c7.07-11.69,22.98-7.4,22.98-7.4c16.03-4.46,29.01,2.17,29.01,2.17
			c-0.13,10.3-4.29,16.61-4.29,16.61c10.6,6.15,15.9,25.84,15.9,25.84c-2.02-4.31-11.74-11.23-11.74-11.23
			c0.79,1.59,1.27,2.5,1.39,5.68c0.33,9.04-2.99,17.69-8.79,23.34c-2.75,2.68-5.09,4.51-5.09,4.51
			c-14.51,10.61-16.03,22.61-16.03,22.61c9.21-13.53,17.04-12.61,17.04-12.61c-4.42,2.61-8.33,16.92-8.33,16.92
			c-5.3,22.45,0.13,36.76,0.13,36.76c-4.29-25.53,13.38-44.75,13.38-44.75c8.96-9.84,11.48-17.22,11.48-17.22
			c0.38,6.15-10.73,30.45-10.73,30.45c-9.09,17.99-0.13,37.99-0.13,37.99c-2.9-21.38,15.52-52.75,15.52-52.75
			c4.16-5.84,9.59-29.07,9.59-29.07c0.37,1.63,0.59,3.35,0.69,5.11c-0.14,0.86,0.88,8.01-1.68,15.96
			c-2.76,12.05-7.84,22.46-7.84,22.46c-10.47,22.61-8.2,36.6-8.2,36.6c2.02-17.22,12.62-31.68,12.62-31.68
			c2.45-3.55,4.33-7.66,5.76-11.67c1.03,3.45,2.48,6.98,4.47,10.46c-1.35,6.19-3.04,10.28-3.04,10.28c2.1-2.09,3.9-4.27,5.46-6.48
			c1.56,2.22,3.37,4.39,5.46,6.48c0,0-1.69-4.1-3.04-10.28c1.99-3.48,3.44-7.01,4.47-10.46c1.43,4.01,3.31,8.12,5.76,11.67
			c0,0,10.6,14.46,12.62,31.68c0,0,2.27-13.99-8.2-36.6c0,0-5.07-10.41-7.84-22.46c-3.16-8.04-1.55-15.1-1.68-15.96
			c0.1-1.76,0.32-3.47,0.69-5.11c0,0,5.43,23.22,9.59,29.07c0,0,18.42,31.37,15.52,52.75c0,0,8.96-19.99-0.13-37.99
			c0,0-11.1-24.3-10.73-30.45c0,0,2.52,7.38,11.48,17.22c0,0,17.67,19.22,13.38,44.75c0,0,5.43-14.3,0.13-36.76
			c0,0-3.91-14.3-8.33-16.92c0,0,7.82-0.92,17.04,12.61c0,0-1.51-12-16.03-22.61c0,0-2.34-1.83-5.09-4.51
			c-5.8-5.65-9.12-14.3-8.79-23.34c0.12-3.18,0.6-4.08,1.39-5.68c0,0-9.72,6.92-11.74,11.23c0,0,5.3-19.69,15.9-25.84
			c0,0-4.16-6.31-4.29-16.61c0,0,12.98-6.63,29.01-2.17c0,0,15.92-4.29,22.98,7.4h-2.65l5.43,6.92c0,0-6.69-1.85-11.74-0.31
			c0,0-1.41-10.01-12.33-13.28c-3.86-1.16-8-0.43-11.89,0.55c-3.38,0.85-7.77,2.26-9.59,4.12c0,0,6.56,3.38,6.69,6.31
			c0,0,7.19-4.31,11.36-3.84c0,0-11.23,5.69-18.17,23.38c0,0-6.44,14.92,6.56,25.53c0,0,14.26,9.84,15.27,11.23
			c0,0,2.99,2.78,3.15,4c0.02,0.16,0.63-5.54-3.79-11.23l-9-8.22c-2.32-2.12-4.04-5.13-4.72-8.57c-0.56-2.83-0.46-6.04,1.73-8.44
			c0,0,3.53-7.38,10.85,3.69c0,0,4.54,4.92,10.85,2.31l-8.71,8c0,0,18.68-12.46,21.58-9.84l-16.78,13.07l15.27-8.92
			c0,0,4.42-1.23,0.5,2.77l-10.98,9.07l10.6-6.46c0,0-1.77,6.77-0.63,10.3c0,0,2.02,3.38,5.43-0.62c0,0,9.21-7.43,15.98-5.31
			c0,0,7.12-6.24,3.73-15.55C400.29,451.57,399.85,448.92,395.77,449.03z M296.75,418.39 M286.74,435.03"/>
		<linearGradient id="SVGID_4_" gradientUnits="userSpaceOnUse" x1="402.2968" y1="460.567" x2="406.3316" y2="460.567">
			<stop  offset="0" style="stop-color:#CF6301"/>
			<stop  offset="0.2667" style="stop-color:#FFD31D"/>
			<stop  offset="0.3477" style="stop-color:#FFF076"/>
			<stop  offset="0.3939" style="stop-color:#FFFFA4"/>
			<stop  offset="0.4223" style="stop-color:#FFF68A"/>
			<stop  offset="0.4825" style="stop-color:#FFDF49"/>
			<stop  offset="0.503" style="stop-color:#FFD731"/>
			<stop  offset="0.6485" style="stop-color:#D97907"/>
			<stop  offset="0.7697" style="stop-color:#FFDE00"/>
			<stop  offset="0.804" style="stop-color:#FDD900"/>
			<stop  offset="0.8461" style="stop-color:#F7CA01"/>
			<stop  offset="0.8922" style="stop-color:#EEB103"/>
			<stop  offset="0.9408" style="stop-color:#E18F05"/>
			<stop  offset="0.9515" style="stop-color:#DE8606"/>
			<stop  offset="1" style="stop-color:#EA9600"/>
		</linearGradient>
		<path class="st4" d="M403.24,454.31c0,0,2.06,7.02-0.95,12.27c0,0,3.09,1.43,3.87-2.49c0.04-0.2,0.01-0.4,0.04-0.6
			C406.37,462.17,406.91,456.26,403.24,454.31z"/>
		<linearGradient id="SVGID_5_" gradientUnits="userSpaceOnUse" x1="377.7785" y1="488.1531" x2="399.905" y2="488.1531">
			<stop  offset="0" style="stop-color:#CF6301"/>
			<stop  offset="0.2667" style="stop-color:#FFD31D"/>
			<stop  offset="0.3477" style="stop-color:#FFF076"/>
			<stop  offset="0.3939" style="stop-color:#FFFFA4"/>
			<stop  offset="0.4223" style="stop-color:#FFF68A"/>
			<stop  offset="0.4825" style="stop-color:#FFDF49"/>
			<stop  offset="0.503" style="stop-color:#FFD731"/>
			<stop  offset="0.6485" style="stop-color:#D97907"/>
			<stop  offset="0.7697" style="stop-color:#FFDE00"/>
			<stop  offset="0.804" style="stop-color:#FDD900"/>
			<stop  offset="0.8461" style="stop-color:#F7CA01"/>
			<stop  offset="0.8922" style="stop-color:#EEB103"/>
			<stop  offset="0.9408" style="stop-color:#E18F05"/>
			<stop  offset="0.9515" style="stop-color:#DE8606"/>
			<stop  offset="1" style="stop-color:#EA9600"/>
		</linearGradient>
		<path class="st5" d="M391.46,473.81c-3.44-0.31-13.68,4.09-13.68,4.09v0.29c1.28,11.4,8.85,7.44,8.85,7.44
			c3.08,9.01-5.54,16.92-5.54,16.92c9.46-2.73,11.98-8.26,11.98-8.26l-0.32,3.21c6.62-5.45,6.88-11.95,6.88-11.95
			C401.69,472.24,391.46,473.81,391.46,473.81z"/>
	</g>
	<g>
		<linearGradient id="SVGID_6_" gradientUnits="userSpaceOnUse" x1="310.2464" y1="346.2215" x2="326.209" y2="346.2215">
			<stop  offset="0" style="stop-color:#CF6301"/>
			<stop  offset="0.2667" style="stop-color:#FFD31D"/>
			<stop  offset="0.3477" style="stop-color:#FFF076"/>
			<stop  offset="0.3939" style="stop-color:#FFFFA4"/>
			<stop  offset="0.4223" style="stop-color:#FFF68A"/>
			<stop  offset="0.4825" style="stop-color:#FFDF49"/>
			<stop  offset="0.503" style="stop-color:#FFD731"/>
			<stop  offset="0.6485" style="stop-color:#D97907"/>
			<stop  offset="0.7697" style="stop-color:#FFDE00"/>
			<stop  offset="0.804" style="stop-color:#FDD900"/>
			<stop  offset="0.8461" style="stop-color:#F7CA01"/>
			<stop  offset="0.8922" style="stop-color:#EEB103"/>
			<stop  offset="0.9408" style="stop-color:#E18F05"/>
			<stop  offset="0.9515" style="stop-color:#DE8606"/>
			<stop  offset="1" style="stop-color:#EA9600"/>
		</linearGradient>
		<path class="st6" d="M310.25,353.69c4.89,3.31,9.68,4.71,15.21,3.28c-2.27-4.08-4.34-7.92,0.53-11.38
			c0.32-0.22,0.26-1.4,0.03-1.99c-1.1-2.79-2.32-5.53-3.65-8.67c-2.81,2.77-5.27,5.2-7.69,7.59
			C317.98,348.58,317.21,350.66,310.25,353.69z"/>
		<linearGradient id="SVGID_7_" gradientUnits="userSpaceOnUse" x1="263.6287" y1="346.232" x2="279.4061" y2="346.232">
			<stop  offset="0" style="stop-color:#CF6301"/>
			<stop  offset="0.2667" style="stop-color:#FFD31D"/>
			<stop  offset="0.3477" style="stop-color:#FFF076"/>
			<stop  offset="0.3939" style="stop-color:#FFFFA4"/>
			<stop  offset="0.4223" style="stop-color:#FFF68A"/>
			<stop  offset="0.4825" style="stop-color:#FFDF49"/>
			<stop  offset="0.503" style="stop-color:#FFD731"/>
			<stop  offset="0.6485" style="stop-color:#D97907"/>
			<stop  offset="0.7697" style="stop-color:#FFDE00"/>
			<stop  offset="0.804" style="stop-color:#FDD900"/>
			<stop  offset="0.8461" style="stop-color:#F7CA01"/>
			<stop  offset="0.8922" style="stop-color:#EEB103"/>
			<stop  offset="0.9408" style="stop-color:#E18F05"/>
			<stop  offset="0.9515" style="stop-color:#DE8606"/>
			<stop  offset="1" style="stop-color:#EA9600"/>
		</linearGradient>
		<path class="st7" d="M264.69,357.15c5.26,1.02,10.09-0.03,14.72-3.42c-6.9-3.45-7.3-4.52-4.4-11.39c-2.43-2.36-4.9-4.75-7.62-7.4
			c-1.48,3.58-2.79,6.72-3.75,9.05c1.37,2.82,2.93,4.65,3.01,6.55C266.72,352.64,265.45,354.79,264.69,357.15z"/>
		<linearGradient id="SVGID_8_" gradientUnits="userSpaceOnUse" x1="237.7692" y1="347.7778" x2="352.0894" y2="347.7778">
			<stop  offset="0" style="stop-color:#CF6301"/>
			<stop  offset="0.2667" style="stop-color:#FFD31D"/>
			<stop  offset="0.3477" style="stop-color:#FFF076"/>
			<stop  offset="0.3939" style="stop-color:#FFFFA4"/>
			<stop  offset="0.4223" style="stop-color:#FFF68A"/>
			<stop  offset="0.4825" style="stop-color:#FFDF49"/>
			<stop  offset="0.503" style="stop-color:#FFD731"/>
			<stop  offset="0.6485" style="stop-color:#D97907"/>
			<stop  offset="0.7697" style="stop-color:#FFDE00"/>
			<stop  offset="0.804" style="stop-color:#FDD900"/>
			<stop  offset="0.8461" style="stop-color:#F7CA01"/>
			<stop  offset="0.8922" style="stop-color:#EEB103"/>
			<stop  offset="0.9408" style="stop-color:#E18F05"/>
			<stop  offset="0.9515" style="stop-color:#DE8606"/>
			<stop  offset="1" style="stop-color:#EA9600"/>
		</linearGradient>
		<path class="st8" d="M273.17,374.86c0,0,11.17,4.3,17.25,4.27c4.98-0.03,9.97,0.05,14.94-0.24c2.29-0.13,6.76-1.64,6.76-1.64
			s15.7-8.12,25.1-4.76c5.01-13.85,9.94-27.46,14.87-41.08c-4.57,1.53-8.43,3.41-12.11,5.6c-0.8,0.47-1.51,2.11-1.39,3.09
			c1.35,11.03-4.46,19.26-14.58,20.39c-11.41,1.28-21.15-6.03-21.36-16.77c-0.08-3.87,1.9-7.78,3.2-12.68
			c-3.03-4.04-6.89-9.2-10.96-14.62c-2.29,3.07-4.17,5.58-6.05,8.11c-1.93,2.59-3.85,5.19-4.85,6.54c1.36,5.01,3.35,8.82,3.24,12.56
			c-0.33,10.84-9.95,18.1-21.33,16.86c-10.15-1.1-15.94-9.19-14.64-20.3c0.11-0.93-0.15-2.48-0.73-2.82
			c-3.98-2.31-8.09-4.38-12.16-6.52c-0.2,0.26-0.4,0.51-0.6,0.77c4.94,13.59,9.88,27.18,14.8,40.7
			C261.51,370.34,273.17,374.86,273.17,374.86z M294.93,359.32c2.9,0,5.25,2.43,5.25,5.43c0,3-2.35,5.43-5.25,5.43
			s-5.25-2.43-5.25-5.43C289.68,361.75,292.03,359.32,294.93,359.32z"/>
	</g>
</g>
<linearGradient id="SVGID_9_" gradientUnits="userSpaceOnUse" x1="70.7597" y1="395.454" x2="522.7382" y2="395.454">
	<stop  offset="0" style="stop-color:#CF6301"/>
	<stop  offset="0.2667" style="stop-color:#FFD31D"/>
	<stop  offset="0.3477" style="stop-color:#FFF076"/>
	<stop  offset="0.3939" style="stop-color:#FFFFA4"/>
	<stop  offset="0.4223" style="stop-color:#FFF68A"/>
	<stop  offset="0.4825" style="stop-color:#FFDF49"/>
	<stop  offset="0.503" style="stop-color:#FFD731"/>
	<stop  offset="0.6485" style="stop-color:#D97907"/>
	<stop  offset="0.7697" style="stop-color:#FFDE00"/>
	<stop  offset="0.804" style="stop-color:#FDD900"/>
	<stop  offset="0.8461" style="stop-color:#F7CA01"/>
	<stop  offset="0.8922" style="stop-color:#EEB103"/>
	<stop  offset="0.9408" style="stop-color:#E18F05"/>
	<stop  offset="0.9515" style="stop-color:#DE8606"/>
	<stop  offset="1" style="stop-color:#EA9600"/>
</linearGradient>
<path class="st9" d="M520.01,211.92c-89.98-57.34-223.26-82.34-223.26-82.34s-137.16,30.55-223.26,82.34
	c0,0-44.22,375.32,223.26,449.41C564.22,587.24,520.01,211.92,520.01,211.92z M490.15,402.93
	c-28.24,127.75-93.28,208.32-193.4,239.64C196.08,611.09,130.9,529.85,102.92,400.93c-16.35-75.32-15.13-146.02-13.2-179.43
	c75.71-40.4,179.86-67.09,207.56-73.77c27.16,5.75,128.9,29.23,206.44,73.13C505.65,254.4,506.97,326.82,490.15,402.93z"/>
<g>
	<linearGradient id="SVGID_10_" gradientUnits="userSpaceOnUse" x1="296.7489" y1="658.9117" x2="296.7489" y2="648.9825">
		<stop  offset="0" style="stop-color:#FFCF78"/>
		<stop  offset="0.526" style="stop-color:#B0894B"/>
		<stop  offset="1" style="stop-color:#664621"/>
	</linearGradient>
	<path class="st10" d="M303.2,652.15c0,3.59-2.89,6.5-6.45,6.5c-3.57,0-6.46-2.91-6.46-6.5c0-3.59,2.89-6.5,6.46-6.5
		C300.31,645.65,303.2,648.56,303.2,652.15z"/>
	<linearGradient id="SVGID_11_" gradientUnits="userSpaceOnUse" x1="296.7498" y1="645.8528" x2="296.7498" y2="657.455">
		<stop  offset="0" style="stop-color:#633A00"/>
		<stop  offset="1" style="stop-color:#96713B"/>
	</linearGradient>
	<path class="st11" d="M302.67,651.54c0,3.27-2.65,5.92-5.92,5.92c-3.27,0-5.92-2.65-5.92-5.92c0-3.27,2.65-5.92,5.92-5.92
		C300.02,645.62,302.67,648.27,302.67,651.54z"/>
	<radialGradient id="SVGID_12_" cx="295.7993" cy="649.4069" r="4.5019" gradientUnits="userSpaceOnUse">
		<stop  offset="0" style="stop-color:#FFDA87"/>
		<stop  offset="0.758" style="stop-color:#B18B4E"/>
		<stop  offset="1" style="stop-color:#97713B"/>
	</radialGradient>
	<path class="st12" d="M301.25,651.54c0,2.49-2.02,4.5-4.5,4.5c-2.49,0-4.5-2.02-4.5-4.5c0-2.48,2.02-4.5,4.5-4.5
		C299.23,647.04,301.25,649.06,301.25,651.54z"/>
	<linearGradient id="SVGID_13_" gradientUnits="userSpaceOnUse" x1="296.7166" y1="648.2492" x2="296.7166" y2="653.4048">
		<stop  offset="0" style="stop-color:#000000"/>
		<stop  offset="0.2132" style="stop-color:#080601"/>
		<stop  offset="0.5486" style="stop-color:#1F1502"/>
		<stop  offset="0.9621" style="stop-color:#432D05"/>
		<stop  offset="1" style="stop-color:#473005"/>
	</linearGradient>
	<path class="st13" d="M300.45,650.07c0,1.5-1.67,2.71-3.73,2.71c-2.06,0-3.73-1.21-3.73-2.71c0-1.5,1.67-2.71,3.73-2.71
		C298.78,647.36,300.45,648.58,300.45,650.07z"/>
</g>
<g>
	<linearGradient id="SVGID_14_" gradientUnits="userSpaceOnUse" x1="504.8169" y1="388.6344" x2="504.8169" y2="378.7052">
		<stop  offset="0" style="stop-color:#FFCF78"/>
		<stop  offset="0.526" style="stop-color:#B0894B"/>
		<stop  offset="1" style="stop-color:#664621"/>
	</linearGradient>
	<path class="st14" d="M511.27,381.87c0,3.59-2.89,6.5-6.45,6.5c-3.57,0-6.46-2.91-6.46-6.5c0-3.59,2.89-6.5,6.46-6.5
		C508.38,375.37,511.27,378.28,511.27,381.87z"/>
	<linearGradient id="SVGID_15_" gradientUnits="userSpaceOnUse" x1="504.8177" y1="375.5755" x2="504.8177" y2="387.1777">
		<stop  offset="0" style="stop-color:#633A00"/>
		<stop  offset="1" style="stop-color:#96713B"/>
	</linearGradient>
	<path class="st15" d="M510.74,381.26c0,3.27-2.65,5.92-5.92,5.92s-5.92-2.65-5.92-5.92c0-3.27,2.65-5.92,5.92-5.92
		S510.74,377.99,510.74,381.26z"/>
	<radialGradient id="SVGID_16_" cx="503.8673" cy="379.1295" r="4.5019" gradientUnits="userSpaceOnUse">
		<stop  offset="0" style="stop-color:#FFDA87"/>
		<stop  offset="0.758" style="stop-color:#B18B4E"/>
		<stop  offset="1" style="stop-color:#97713B"/>
	</radialGradient>
	<path class="st16" d="M509.32,381.26c0,2.49-2.02,4.5-4.5,4.5c-2.49,0-4.5-2.02-4.5-4.5c0-2.48,2.02-4.5,4.5-4.5
		C507.3,376.76,509.32,378.78,509.32,381.26z"/>
	<linearGradient id="SVGID_17_" gradientUnits="userSpaceOnUse" x1="504.7846" y1="377.9719" x2="504.7846" y2="383.1276">
		<stop  offset="0" style="stop-color:#000000"/>
		<stop  offset="0.2132" style="stop-color:#080601"/>
		<stop  offset="0.5486" style="stop-color:#1F1502"/>
		<stop  offset="0.9621" style="stop-color:#432D05"/>
		<stop  offset="1" style="stop-color:#473005"/>
	</linearGradient>
	<path class="st17" d="M508.51,379.79c0,1.5-1.67,2.71-3.73,2.71c-2.06,0-3.73-1.21-3.73-2.71c0-1.5,1.67-2.71,3.73-2.71
		C506.84,377.08,508.51,378.3,508.51,379.79z"/>
</g>
<g>
	<linearGradient id="SVGID_18_" gradientUnits="userSpaceOnUse" x1="88.6262" y1="388.6344" x2="88.6262" y2="378.7052">
		<stop  offset="0" style="stop-color:#FFCF78"/>
		<stop  offset="0.526" style="stop-color:#B0894B"/>
		<stop  offset="1" style="stop-color:#664621"/>
	</linearGradient>
	<path class="st18" d="M95.08,381.87c0,3.59-2.89,6.5-6.45,6.5c-3.57,0-6.46-2.91-6.46-6.5c0-3.59,2.89-6.5,6.46-6.5
		C92.19,375.37,95.08,378.28,95.08,381.87z"/>
	<linearGradient id="SVGID_19_" gradientUnits="userSpaceOnUse" x1="88.6271" y1="375.5755" x2="88.6271" y2="387.1777">
		<stop  offset="0" style="stop-color:#633A00"/>
		<stop  offset="1" style="stop-color:#96713B"/>
	</linearGradient>
	<path class="st19" d="M94.55,381.26c0,3.27-2.65,5.92-5.92,5.92c-3.27,0-5.92-2.65-5.92-5.92c0-3.27,2.65-5.92,5.92-5.92
		C91.9,375.34,94.55,377.99,94.55,381.26z"/>
	<radialGradient id="SVGID_20_" cx="87.6766" cy="379.1295" r="4.5019" gradientUnits="userSpaceOnUse">
		<stop  offset="0" style="stop-color:#FFDA87"/>
		<stop  offset="0.758" style="stop-color:#B18B4E"/>
		<stop  offset="1" style="stop-color:#97713B"/>
	</radialGradient>
	<path class="st20" d="M93.13,381.26c0,2.49-2.02,4.5-4.5,4.5c-2.49,0-4.5-2.02-4.5-4.5c0-2.48,2.02-4.5,4.5-4.5
		C91.11,376.76,93.13,378.78,93.13,381.26z"/>
	<linearGradient id="SVGID_21_" gradientUnits="userSpaceOnUse" x1="88.594" y1="377.9719" x2="88.594" y2="383.1276">
		<stop  offset="0" style="stop-color:#000000"/>
		<stop  offset="0.2132" style="stop-color:#080601"/>
		<stop  offset="0.5486" style="stop-color:#1F1502"/>
		<stop  offset="0.9621" style="stop-color:#432D05"/>
		<stop  offset="1" style="stop-color:#473005"/>
	</linearGradient>
	<path class="st21" d="M92.32,379.79c0,1.5-1.67,2.71-3.73,2.71c-2.06,0-3.73-1.21-3.73-2.71c0-1.5,1.67-2.71,3.73-2.71
		C90.65,377.08,92.32,378.3,92.32,379.79z"/>
</g>
<g>
	<linearGradient id="SVGID_22_" gradientUnits="userSpaceOnUse" x1="58.2737" y1="286.51" x2="537.6108" y2="286.51">
		<stop  offset="0" style="stop-color:#CF6301"/>
		<stop  offset="0.2667" style="stop-color:#FFD31D"/>
		<stop  offset="0.3477" style="stop-color:#FFF076"/>
		<stop  offset="0.3939" style="stop-color:#FFFFA4"/>
		<stop  offset="0.4223" style="stop-color:#FFF68A"/>
		<stop  offset="0.4825" style="stop-color:#FFDF49"/>
		<stop  offset="0.503" style="stop-color:#FFD731"/>
		<stop  offset="0.6485" style="stop-color:#D97907"/>
		<stop  offset="0.7697" style="stop-color:#FFDE00"/>
		<stop  offset="0.804" style="stop-color:#FDD900"/>
		<stop  offset="0.8461" style="stop-color:#F7CA01"/>
		<stop  offset="0.8922" style="stop-color:#EEB103"/>
		<stop  offset="0.9408" style="stop-color:#E18F05"/>
		<stop  offset="0.9515" style="stop-color:#DE8606"/>
		<stop  offset="1" style="stop-color:#EA9600"/>
	</linearGradient>
	<path class="st22" d="M537.61,381.86c-70.13-42.25-162.07-74.85-239.67-74.85c-77.6,0-169.53,28.45-239.67,70.7V266.1
		c69.49-44.98,161.73-74.93,239.67-74.93c77.94,0,170.17,34.09,239.67,79.08V381.86z"/>
</g>
<g>
	<path d="M166.02,313.12c-1.06-0.28-1.99-0.83-2.8-1.65c-0.81-0.82-1.4-1.84-1.78-3.06c-0.38-1.22-0.47-2.4-0.27-3.53
		c0.2-1.13,0.66-2.11,1.38-2.95c0.72-0.83,1.63-1.42,2.73-1.76c0.86-0.27,1.7-0.35,2.51-0.24c0.82,0.11,1.57,0.41,2.28,0.9
		l-0.67,1.45c-1.14-0.74-2.32-0.91-3.56-0.53c-0.82,0.25-1.49,0.69-2.02,1.32c-0.53,0.62-0.87,1.36-1.01,2.21
		c-0.14,0.85-0.07,1.73,0.21,2.64c0.28,0.91,0.72,1.67,1.33,2.29s1.3,1.04,2.09,1.25s1.59,0.19,2.41-0.06
		c1.23-0.38,2.1-1.2,2.63-2.47l1.37,0.81c-0.3,0.8-0.76,1.48-1.37,2.04c-0.61,0.56-1.35,0.97-2.21,1.24
		C168.15,313.37,167.07,313.4,166.02,313.12z"/>
	<path d="M182.2,308.51c-0.78-0.24-1.46-0.69-2.04-1.33c-0.58-0.64-0.99-1.43-1.25-2.38c-0.26-0.94-0.3-1.84-0.12-2.68
		c0.17-0.85,0.54-1.57,1.09-2.17c0.55-0.6,1.25-1.01,2.09-1.24s1.64-0.22,2.42,0.02c0.78,0.24,1.45,0.68,2.03,1.32
		c0.58,0.64,0.99,1.44,1.25,2.38c0.25,0.94,0.29,1.84,0.12,2.68c-0.17,0.85-0.54,1.57-1.08,2.17c-0.55,0.6-1.24,1.02-2.08,1.24
		C183.79,308.76,182.98,308.75,182.2,308.51z M185.55,306.19c0.35-0.4,0.58-0.89,0.68-1.47c0.1-0.58,0.07-1.2-0.11-1.87
		c-0.18-0.67-0.46-1.22-0.84-1.67c-0.38-0.45-0.83-0.75-1.33-0.92c-0.5-0.16-1.03-0.17-1.57-0.02c-0.54,0.15-0.99,0.42-1.34,0.81
		c-0.35,0.39-0.58,0.88-0.69,1.46c-0.11,0.58-0.08,1.21,0.11,1.87c0.18,0.67,0.46,1.22,0.85,1.67c0.39,0.45,0.83,0.75,1.34,0.92
		s1.03,0.18,1.57,0.03C184.75,306.86,185.2,306.59,185.55,306.19z"/>
	<path d="M208.24,293.5c0.78,0.57,1.33,1.55,1.64,2.95l1.25,5.59l-1.54,0.34l-1.2-5.39c-0.21-0.94-0.56-1.61-1.04-2
		c-0.49-0.39-1.08-0.51-1.79-0.35c-0.78,0.17-1.34,0.59-1.68,1.25c-0.34,0.66-0.39,1.51-0.16,2.55l1.12,5.01l-1.54,0.34l-1.2-5.39
		c-0.21-0.94-0.56-1.61-1.04-2c-0.49-0.39-1.08-0.51-1.79-0.35c-0.78,0.17-1.34,0.59-1.68,1.25c-0.34,0.66-0.39,1.51-0.16,2.55
		l1.12,5.01L197,305.2l-2.17-9.72l1.48-0.33l0.32,1.45c0.2-0.57,0.52-1.04,0.96-1.42s0.99-0.63,1.63-0.78
		c0.66-0.15,1.29-0.13,1.87,0.06c0.58,0.19,1.08,0.55,1.49,1.07c0.2-0.63,0.54-1.17,1.05-1.62c0.5-0.45,1.11-0.75,1.83-0.91
		C206.53,292.77,207.46,292.93,208.24,293.5z"/>
	<path d="M225.19,289.88c0.73,0.3,1.35,0.8,1.86,1.49c0.5,0.69,0.84,1.53,1.02,2.51c0.17,0.99,0.14,1.89-0.1,2.72
		c-0.24,0.82-0.65,1.5-1.24,2.04c-0.59,0.54-1.29,0.88-2.13,1.02c-0.64,0.11-1.25,0.07-1.83-0.12c-0.58-0.19-1.09-0.53-1.53-1.01
		l0.27,1.56l-1.49,0.26l-2.4-13.74l1.56-0.27l0.95,5.41c0.25-0.58,0.62-1.05,1.09-1.4c0.47-0.36,1.02-0.59,1.63-0.7
		C223.68,289.5,224.46,289.58,225.19,289.88z M225.6,297.44c0.39-0.37,0.66-0.83,0.82-1.4c0.16-0.57,0.18-1.19,0.06-1.87
		c-0.12-0.68-0.35-1.26-0.7-1.74s-0.76-0.82-1.25-1.03s-1.01-0.26-1.56-0.17c-0.54,0.09-1.01,0.32-1.4,0.68
		c-0.39,0.36-0.67,0.83-0.83,1.39c-0.16,0.57-0.18,1.19-0.06,1.87c0.12,0.68,0.35,1.26,0.69,1.74c0.34,0.48,0.76,0.83,1.25,1.04
		c0.49,0.21,1.01,0.27,1.55,0.18C224.74,298.03,225.21,297.8,225.6,297.44z"/>
	<path d="M241.74,287.8c0.73,0.58,1.18,1.54,1.36,2.87l0.81,5.96l-1.48,0.2l-0.18-1.3c-0.2,0.49-0.52,0.9-0.97,1.2
		c-0.45,0.31-1.01,0.51-1.67,0.6c-0.97,0.13-1.78-0.03-2.43-0.49c-0.65-0.45-1.04-1.12-1.16-1.99c-0.12-0.87,0.07-1.6,0.55-2.21
		c0.48-0.6,1.33-0.99,2.54-1.15l2.48-0.34l-0.05-0.35c-0.1-0.77-0.38-1.33-0.83-1.69c-0.45-0.36-1.05-0.48-1.81-0.38
		c-0.51,0.07-1,0.23-1.46,0.49c-0.46,0.26-0.84,0.57-1.13,0.94l-0.83-1.25c0.39-0.47,0.88-0.86,1.47-1.16
		c0.59-0.3,1.23-0.5,1.93-0.59C240.05,287,241.01,287.22,241.74,287.8z M241.16,295.25c0.39-0.36,0.65-0.84,0.77-1.42l-0.19-1.38
		l-2.41,0.33c-1.33,0.18-1.92,0.78-1.78,1.8c0.07,0.5,0.29,0.87,0.66,1.1c0.38,0.24,0.86,0.32,1.46,0.24
		S240.77,295.61,241.16,295.25z"/>
	<path d="M257.73,294.52c-0.21,0.25-0.47,0.45-0.8,0.6s-0.67,0.25-1.03,0.28c-0.87,0.09-1.58-0.11-2.11-0.6
		c-0.54-0.49-0.85-1.23-0.95-2.23l-0.55-5.44l-1.47,0.15l-0.15-1.48l1.47-0.15l-0.22-2.17l1.57-0.16l0.22,2.17l2.49-0.25l0.15,1.48
		l-2.49,0.25l0.54,5.37c0.05,0.54,0.21,0.94,0.48,1.2s0.61,0.37,1.05,0.33c0.48-0.05,0.87-0.25,1.18-0.59L257.73,294.52z"/>
	<path d="M288.7,281.83l0.07,4.59l5.78-0.08l0.02,1.62l-5.78,0.08l0.08,5.32l-1.65,0.02l-0.19-13.16l8.13-0.12l0.02,1.64
		L288.7,281.83z"/>
	<path d="M311.26,289.14l-7.08-0.18c0.08,0.88,0.4,1.59,0.96,2.14c0.56,0.55,1.27,0.83,2.13,0.85c1.04,0.03,1.89-0.35,2.55-1.14
		l0.84,1.19c-0.41,0.52-0.91,0.91-1.5,1.17c-0.59,0.26-1.25,0.38-1.98,0.36c-0.92-0.02-1.73-0.26-2.44-0.71
		c-0.7-0.45-1.24-1.07-1.61-1.85c-0.37-0.79-0.54-1.67-0.52-2.65c0.02-0.96,0.23-1.83,0.63-2.6c0.4-0.77,0.93-1.36,1.61-1.77
		c0.67-0.42,1.43-0.61,2.26-0.59c0.83,0.02,1.57,0.26,2.21,0.7c0.64,0.45,1.14,1.07,1.49,1.85c0.35,0.79,0.51,1.68,0.48,2.68
		C311.3,288.73,311.29,288.91,311.26,289.14z M305.16,285.62c-0.52,0.51-0.84,1.19-0.95,2.04l5.59,0.14
		c-0.07-0.84-0.35-1.53-0.84-2.08c-0.5-0.55-1.12-0.83-1.88-0.85C306.33,284.86,305.69,285.11,305.16,285.62z"/>
	<path d="M328.62,280.53l-0.92,13.92l-1.51-0.1l0.1-1.58c-0.39,0.53-0.86,0.92-1.41,1.17c-0.56,0.25-1.16,0.36-1.8,0.31
		c-0.84-0.06-1.58-0.32-2.22-0.79c-0.64-0.47-1.12-1.1-1.45-1.89c-0.33-0.79-0.46-1.69-0.39-2.69c0.07-1,0.31-1.87,0.74-2.61
		c0.43-0.74,0.99-1.3,1.69-1.68s1.47-0.54,2.31-0.49c0.62,0.04,1.19,0.21,1.7,0.52c0.51,0.3,0.92,0.73,1.23,1.28l0.36-5.48
		L328.62,280.53z M324.84,292.34c0.47-0.26,0.85-0.65,1.13-1.17s0.45-1.12,0.5-1.8c0.05-0.69-0.04-1.31-0.26-1.85
		c-0.22-0.55-0.54-0.98-0.97-1.3c-0.43-0.32-0.92-0.49-1.47-0.53c-0.56-0.04-1.07,0.07-1.53,0.33c-0.46,0.26-0.84,0.64-1.13,1.16
		c-0.29,0.51-0.46,1.12-0.51,1.8c-0.04,0.69,0.04,1.31,0.27,1.85c0.22,0.55,0.54,0.98,0.97,1.31c0.42,0.32,0.92,0.5,1.47,0.54
		C323.86,292.72,324.37,292.6,324.84,292.34z"/>
	<path d="M345.04,291.73l-7.04-0.76c0,0.88,0.26,1.62,0.78,2.21c0.52,0.59,1.2,0.93,2.05,1.02c1.04,0.11,1.91-0.2,2.63-0.93
		l0.74,1.25c-0.45,0.48-0.98,0.83-1.59,1.04c-0.61,0.21-1.28,0.28-2,0.2c-0.92-0.1-1.71-0.4-2.37-0.91
		c-0.66-0.51-1.15-1.17-1.45-1.98c-0.3-0.81-0.4-1.71-0.3-2.68c0.1-0.96,0.38-1.8,0.84-2.54c0.46-0.73,1.04-1.28,1.75-1.64
		c0.71-0.36,1.47-0.49,2.3-0.4s1.54,0.38,2.15,0.88c0.6,0.5,1.05,1.16,1.33,1.97c0.28,0.81,0.37,1.72,0.26,2.71
		C345.11,291.33,345.08,291.5,345.04,291.73z M339.25,287.72c-0.56,0.47-0.93,1.12-1.11,1.96l5.56,0.6c0-0.84-0.22-1.56-0.67-2.14
		c-0.45-0.58-1.05-0.92-1.8-1S339.82,287.25,339.25,287.72z"/>
	<path d="M356.95,288.05c0.58-0.22,1.24-0.28,2-0.17l-0.25,1.73c-0.08-0.02-0.2-0.05-0.36-0.07c-0.85-0.12-1.55,0.07-2.12,0.58
		s-0.93,1.29-1.08,2.36l-0.71,4.91l-1.56-0.23l1.42-9.86l1.5,0.22l-0.24,1.66C355.91,288.65,356.37,288.28,356.95,288.05z"/>
	<path d="M372.93,291.28c0.51,0.78,0.65,1.83,0.41,3.15l-1.07,5.92l-1.47-0.27l0.23-1.29c-0.34,0.41-0.77,0.69-1.3,0.85
		c-0.52,0.15-1.12,0.17-1.77,0.05c-0.96-0.17-1.68-0.58-2.17-1.21s-0.65-1.38-0.49-2.25c0.16-0.86,0.56-1.51,1.2-1.93
		c0.65-0.42,1.57-0.53,2.77-0.31l2.46,0.44l0.06-0.35c0.14-0.76,0.05-1.39-0.27-1.86s-0.85-0.78-1.61-0.92
		c-0.51-0.09-1.02-0.09-1.54,0.02c-0.52,0.1-0.98,0.29-1.37,0.55l-0.41-1.45c0.52-0.33,1.1-0.54,1.76-0.65
		c0.65-0.1,1.33-0.1,2.02,0.03C371.57,290,372.42,290.5,372.93,291.28z M370.09,298.18c0.49-0.22,0.88-0.6,1.17-1.12l0.25-1.37
		l-2.4-0.43c-1.32-0.24-2.07,0.15-2.25,1.16c-0.09,0.49,0.01,0.91,0.29,1.26c0.28,0.34,0.72,0.57,1.32,0.68
		S369.6,298.41,370.09,298.18z"/>
	<path d="M386.1,302.61c-0.27,0.17-0.59,0.28-0.95,0.32c-0.36,0.04-0.71,0.03-1.07-0.05c-0.86-0.19-1.47-0.59-1.82-1.22
		s-0.43-1.43-0.22-2.41l1.16-5.35l-1.45-0.31l0.32-1.45l1.45,0.31l0.46-2.13l1.54,0.33l-0.46,2.13l2.45,0.53l-0.32,1.45l-2.44-0.53
		l-1.14,5.27c-0.11,0.53-0.09,0.96,0.08,1.29c0.17,0.33,0.47,0.54,0.9,0.64c0.47,0.1,0.91,0.04,1.31-0.2L386.1,302.61z"/>
	<path d="M396.21,295.36l1.53,0.38l-2.39,9.67l-1.53-0.38L396.21,295.36z M396.78,293.18c-0.14-0.27-0.18-0.56-0.1-0.88
		s0.24-0.56,0.5-0.74c0.25-0.18,0.53-0.23,0.83-0.15c0.3,0.07,0.52,0.24,0.66,0.5c0.14,0.26,0.18,0.55,0.1,0.87
		c-0.08,0.33-0.25,0.58-0.5,0.76c-0.25,0.18-0.53,0.23-0.83,0.15C397.14,293.62,396.92,293.45,396.78,293.18z"/>
	<path d="M405.72,307.57c-0.55-0.61-0.9-1.34-1.07-2.19c-0.17-0.85-0.12-1.74,0.15-2.68s0.69-1.73,1.27-2.36s1.27-1.07,2.05-1.3
		c0.78-0.23,1.59-0.22,2.43,0.01c0.83,0.24,1.52,0.65,2.06,1.26c0.54,0.6,0.9,1.33,1.06,2.17c0.17,0.85,0.12,1.74-0.15,2.68
		c-0.27,0.94-0.69,1.73-1.27,2.36s-1.27,1.07-2.04,1.31c-0.78,0.24-1.59,0.24-2.42,0C406.96,308.6,406.27,308.18,405.72,307.57z
		 M409.79,307.3c0.51-0.16,0.96-0.47,1.34-0.91c0.39-0.44,0.67-1,0.86-1.66c0.19-0.66,0.23-1.29,0.13-1.87
		c-0.1-0.58-0.32-1.07-0.67-1.47c-0.35-0.4-0.79-0.67-1.33-0.83c-0.54-0.15-1.06-0.15-1.57,0.01s-0.96,0.46-1.35,0.9
		c-0.39,0.44-0.68,1-0.87,1.66c-0.19,0.66-0.23,1.29-0.12,1.87c0.1,0.58,0.33,1.08,0.68,1.48c0.35,0.4,0.79,0.68,1.33,0.83
		C408.76,307.47,409.28,307.46,409.79,307.3z"/>
	<path d="M429.84,306.13c0.39,0.9,0.37,2.02-0.07,3.37l-1.78,5.45l-1.5-0.49l1.71-5.25c0.3-0.92,0.33-1.67,0.1-2.26
		c-0.23-0.59-0.71-1-1.43-1.24c-0.81-0.27-1.54-0.2-2.19,0.19c-0.65,0.39-1.13,1.09-1.46,2.1l-1.59,4.88l-1.5-0.49l3.09-9.47
		l1.44,0.47l-0.47,1.43c0.46-0.39,0.99-0.63,1.6-0.73c0.6-0.09,1.23-0.03,1.89,0.18C428.73,304.61,429.45,305.23,429.84,306.13z"/>
</g>
<g>
	<linearGradient id="SVGID_23_" gradientUnits="userSpaceOnUse" x1="276.7369" y1="609.7181" x2="312.1382" y2="609.7181">
		<stop  offset="0" style="stop-color:#CF6301"/>
		<stop  offset="0.2667" style="stop-color:#FFD31D"/>
		<stop  offset="0.3477" style="stop-color:#FFF076"/>
		<stop  offset="0.3939" style="stop-color:#FFFFA4"/>
		<stop  offset="0.4223" style="stop-color:#FFF68A"/>
		<stop  offset="0.4825" style="stop-color:#FFDF49"/>
		<stop  offset="0.503" style="stop-color:#FFD731"/>
		<stop  offset="0.6485" style="stop-color:#D97907"/>
		<stop  offset="0.7697" style="stop-color:#FFDE00"/>
		<stop  offset="0.804" style="stop-color:#FDD900"/>
		<stop  offset="0.8461" style="stop-color:#F7CA01"/>
		<stop  offset="0.8922" style="stop-color:#EEB103"/>
		<stop  offset="0.9408" style="stop-color:#E18F05"/>
		<stop  offset="0.9515" style="stop-color:#DE8606"/>
		<stop  offset="1" style="stop-color:#EA9600"/>
	</linearGradient>
	<polygon class="st23" points="294.44,591.45 298.62,605.41 312.14,605.41 301.2,614.03 305.38,627.99 294.44,619.36 283.5,627.99 
		287.68,614.03 276.74,605.41 290.26,605.41 	"/>
	<g>
		<linearGradient id="SVGID_24_" gradientUnits="userSpaceOnUse" x1="331.7859" y1="587.6588" x2="367.1871" y2="587.6588">
			<stop  offset="0" style="stop-color:#CF6301"/>
			<stop  offset="0.2667" style="stop-color:#FFD31D"/>
			<stop  offset="0.3477" style="stop-color:#FFF076"/>
			<stop  offset="0.3939" style="stop-color:#FFFFA4"/>
			<stop  offset="0.4223" style="stop-color:#FFF68A"/>
			<stop  offset="0.4825" style="stop-color:#FFDF49"/>
			<stop  offset="0.503" style="stop-color:#FFD731"/>
			<stop  offset="0.6485" style="stop-color:#D97907"/>
			<stop  offset="0.7697" style="stop-color:#FFDE00"/>
			<stop  offset="0.804" style="stop-color:#FDD900"/>
			<stop  offset="0.8461" style="stop-color:#F7CA01"/>
			<stop  offset="0.8922" style="stop-color:#EEB103"/>
			<stop  offset="0.9408" style="stop-color:#E18F05"/>
			<stop  offset="0.9515" style="stop-color:#DE8606"/>
			<stop  offset="1" style="stop-color:#EA9600"/>
		</linearGradient>
		<polygon class="st24" points="349.49,569.39 353.67,583.35 367.19,583.35 356.25,591.97 360.43,605.93 349.49,597.3 
			338.55,605.93 342.73,591.97 331.79,583.35 345.31,583.35 		"/>
		<linearGradient id="SVGID_25_" gradientUnits="userSpaceOnUse" x1="370.9505" y1="558.1669" x2="406.3517" y2="558.1669">
			<stop  offset="0" style="stop-color:#CF6301"/>
			<stop  offset="0.2667" style="stop-color:#FFD31D"/>
			<stop  offset="0.3477" style="stop-color:#FFF076"/>
			<stop  offset="0.3939" style="stop-color:#FFFFA4"/>
			<stop  offset="0.4223" style="stop-color:#FFF68A"/>
			<stop  offset="0.4825" style="stop-color:#FFDF49"/>
			<stop  offset="0.503" style="stop-color:#FFD731"/>
			<stop  offset="0.6485" style="stop-color:#D97907"/>
			<stop  offset="0.7697" style="stop-color:#FFDE00"/>
			<stop  offset="0.804" style="stop-color:#FDD900"/>
			<stop  offset="0.8461" style="stop-color:#F7CA01"/>
			<stop  offset="0.8922" style="stop-color:#EEB103"/>
			<stop  offset="0.9408" style="stop-color:#E18F05"/>
			<stop  offset="0.9515" style="stop-color:#DE8606"/>
			<stop  offset="1" style="stop-color:#EA9600"/>
		</linearGradient>
		<polygon class="st25" points="388.65,539.9 392.83,553.85 406.35,553.85 395.41,562.48 399.59,576.43 388.65,567.81 
			377.71,576.43 381.89,562.48 370.95,553.85 384.47,553.85 		"/>
		<linearGradient id="SVGID_26_" gradientUnits="userSpaceOnUse" x1="399.7401" y1="513.3619" x2="435.1414" y2="513.3619">
			<stop  offset="0" style="stop-color:#CF6301"/>
			<stop  offset="0.2667" style="stop-color:#FFD31D"/>
			<stop  offset="0.3477" style="stop-color:#FFF076"/>
			<stop  offset="0.3939" style="stop-color:#FFFFA4"/>
			<stop  offset="0.4223" style="stop-color:#FFF68A"/>
			<stop  offset="0.4825" style="stop-color:#FFDF49"/>
			<stop  offset="0.503" style="stop-color:#FFD731"/>
			<stop  offset="0.6485" style="stop-color:#D97907"/>
			<stop  offset="0.7697" style="stop-color:#FFDE00"/>
			<stop  offset="0.804" style="stop-color:#FDD900"/>
			<stop  offset="0.8461" style="stop-color:#F7CA01"/>
			<stop  offset="0.8922" style="stop-color:#EEB103"/>
			<stop  offset="0.9408" style="stop-color:#E18F05"/>
			<stop  offset="0.9515" style="stop-color:#DE8606"/>
			<stop  offset="1" style="stop-color:#EA9600"/>
		</linearGradient>
		<polygon class="st26" points="417.44,495.09 421.62,509.05 435.14,509.05 424.2,517.67 428.38,531.63 417.44,523 406.5,531.63 
			410.68,517.67 399.74,509.05 413.26,509.05 		"/>
	</g>
	<g>
		<linearGradient id="SVGID_27_" gradientUnits="userSpaceOnUse" x1="228.2274" y1="587.6588" x2="263.6287" y2="587.6588">
			<stop  offset="0" style="stop-color:#CF6301"/>
			<stop  offset="0.2667" style="stop-color:#FFD31D"/>
			<stop  offset="0.3477" style="stop-color:#FFF076"/>
			<stop  offset="0.3939" style="stop-color:#FFFFA4"/>
			<stop  offset="0.4223" style="stop-color:#FFF68A"/>
			<stop  offset="0.4825" style="stop-color:#FFDF49"/>
			<stop  offset="0.503" style="stop-color:#FFD731"/>
			<stop  offset="0.6485" style="stop-color:#D97907"/>
			<stop  offset="0.7697" style="stop-color:#FFDE00"/>
			<stop  offset="0.804" style="stop-color:#FDD900"/>
			<stop  offset="0.8461" style="stop-color:#F7CA01"/>
			<stop  offset="0.8922" style="stop-color:#EEB103"/>
			<stop  offset="0.9408" style="stop-color:#E18F05"/>
			<stop  offset="0.9515" style="stop-color:#DE8606"/>
			<stop  offset="1" style="stop-color:#EA9600"/>
		</linearGradient>
		<polygon class="st27" points="245.93,569.39 241.75,583.35 228.23,583.35 239.17,591.97 234.99,605.93 245.93,597.3 
			256.87,605.93 252.69,591.97 263.63,583.35 250.11,583.35 		"/>
		<linearGradient id="SVGID_28_" gradientUnits="userSpaceOnUse" x1="189.0628" y1="558.1669" x2="224.4641" y2="558.1669">
			<stop  offset="0" style="stop-color:#CF6301"/>
			<stop  offset="0.2667" style="stop-color:#FFD31D"/>
			<stop  offset="0.3477" style="stop-color:#FFF076"/>
			<stop  offset="0.3939" style="stop-color:#FFFFA4"/>
			<stop  offset="0.4223" style="stop-color:#FFF68A"/>
			<stop  offset="0.4825" style="stop-color:#FFDF49"/>
			<stop  offset="0.503" style="stop-color:#FFD731"/>
			<stop  offset="0.6485" style="stop-color:#D97907"/>
			<stop  offset="0.7697" style="stop-color:#FFDE00"/>
			<stop  offset="0.804" style="stop-color:#FDD900"/>
			<stop  offset="0.8461" style="stop-color:#F7CA01"/>
			<stop  offset="0.8922" style="stop-color:#EEB103"/>
			<stop  offset="0.9408" style="stop-color:#E18F05"/>
			<stop  offset="0.9515" style="stop-color:#DE8606"/>
			<stop  offset="1" style="stop-color:#EA9600"/>
		</linearGradient>
		<polygon class="st28" points="206.76,539.9 202.58,553.85 189.06,553.85 200,562.48 195.82,576.43 206.76,567.81 217.7,576.43 
			213.52,562.48 224.46,553.85 210.94,553.85 		"/>
		<linearGradient id="SVGID_29_" gradientUnits="userSpaceOnUse" x1="160.2732" y1="513.3619" x2="195.6745" y2="513.3619">
			<stop  offset="0" style="stop-color:#CF6301"/>
			<stop  offset="0.2667" style="stop-color:#FFD31D"/>
			<stop  offset="0.3477" style="stop-color:#FFF076"/>
			<stop  offset="0.3939" style="stop-color:#FFFFA4"/>
			<stop  offset="0.4223" style="stop-color:#FFF68A"/>
			<stop  offset="0.4825" style="stop-color:#FFDF49"/>
			<stop  offset="0.503" style="stop-color:#FFD731"/>
			<stop  offset="0.6485" style="stop-color:#D97907"/>
			<stop  offset="0.7697" style="stop-color:#FFDE00"/>
			<stop  offset="0.804" style="stop-color:#FDD900"/>
			<stop  offset="0.8461" style="stop-color:#F7CA01"/>
			<stop  offset="0.8922" style="stop-color:#EEB103"/>
			<stop  offset="0.9408" style="stop-color:#E18F05"/>
			<stop  offset="0.9515" style="stop-color:#DE8606"/>
			<stop  offset="1" style="stop-color:#EA9600"/>
		</linearGradient>
		<polygon class="st29" points="177.97,495.09 173.8,509.05 160.27,509.05 171.21,517.67 167.03,531.63 177.97,523 188.91,531.63 
			184.73,517.67 195.67,509.05 182.15,509.05 		"/>
	</g>
</g>
<g>
	<path d="M77.6,273.15l45.28-15.79c7.19-2.51,13.49-3.41,18.89-2.71c5.4,0.7,8.74,2.86,10,6.47c1.15,3.31,0.11,6.59-3.14,9.84
		c-3.25,3.25-8.31,6.08-15.2,8.48l-17.53,6.11l1.14,3.26l15.33,3.63l-42.82,14.93l9.78-12.38l-6.39-18.34L77.6,273.15z
		 M113.65,279.15l13.04-4.55c2.89-1.01,4.77-2.07,5.64-3.18c0.87-1.11,0.98-2.59,0.33-4.45c-1.21-3.46-4.33-4.31-9.36-2.56
		l-13.19,4.6L113.65,279.15z"/>
	<path d="M208.88,235.61l-7.16,8.24l19.16,17.64l15.15,5.51l-44.74,9.3l10.82-9.84l-2.12-2.11l-20.44,4.25l-1.08,2.77l12.23,5.06
		l-33.16,6.89l8.73-10.47l10.31-23.77l-9.67-4.75L208.88,235.61z M186.05,251.1l-4.27,10.93l12.95-2.69L186.05,251.1z"/>
	<path d="M293.98,226.9l2.52,17.39l-14.68-10.04l-8.45,0.63l1.59,21.3l13.9,7.46l-45.22,3.37l12.64-9.44l-1.59-21.3l-8.45,0.63
		l-13.03,12.11l-0.08-17.58L293.98,226.9z"/>
	<path d="M302.92,227.18l44.67,1.88l-13.63,7.88l-0.81,19.32l12.92,9.02l-44.67-1.88l13.65-7.91l0.81-19.32L302.92,227.18z"/>
	<path d="M422.19,257.83l-3.36,19.13L349.2,264.7l14.54-5.97l3.36-19.07l-11.61-10.67l44.64,7.85l-14.56,6.07L382,263.19l22.03,3.88
		L422.19,257.83z"/>
	<path d="M430.89,260.83l0.31-1.07c4.95-0.53,8.37-2.05,10.25-4.56c-1.29,0.18-2.39,0.13-3.31-0.14c-1.53-0.45-2.69-1.27-3.48-2.47
		c-0.79-1.2-1-2.45-0.62-3.74c0.42-1.43,1.46-2.43,3.12-2.99c1.66-0.57,3.51-0.55,5.55,0.05c2.02,0.59,3.53,1.7,4.53,3.33
		c1,1.63,1.23,3.37,0.69,5.22c-0.75,2.57-2.79,4.48-6.13,5.73C438.45,261.46,434.82,261.67,430.89,260.83z"/>
	<path d="M449.18,288.01l6.88-16.82c1.59,4.67,4.62,9.05,9.08,13.13c4.46,4.08,9.87,7.42,16.21,10.02c6.67,2.73,10.37,3.2,11.1,1.41
		c0.34-0.84,0.12-1.58-0.65-2.23c-0.78-0.65-2.81-1.8-6.09-3.45l-7.1-3.56c-8.26-4.13-13.87-7.61-16.82-10.46
		c-4.69-4.54-6.19-8.87-4.51-12.98c1.58-3.87,4.7-6.13,9.36-6.79c4.66-0.66,10.29,0.36,16.9,3.07c6.36,2.6,11.71,5.81,16.04,9.63
		l1.2,1.07l10.6,0.95l-5.8,14.19c-6.46-9.34-14.66-16.04-24.61-20.11c-6-2.45-9.36-2.79-10.1-1c-0.34,0.84,0.13,1.77,1.41,2.79
		c1.29,1.02,3.88,2.52,7.78,4.5l6.9,3.48c8.66,4.38,14.2,7.92,16.65,10.6c4.09,4.5,5.3,8.79,3.64,12.85
		c-1.49,3.64-4.69,5.71-9.59,6.22c-4.91,0.51-10.75-0.62-17.54-3.4c-7.28-2.98-14.24-7.23-20.9-12.77L449.18,288.01z"/>
</g>
<g>
	<linearGradient id="SVGID_30_" gradientUnits="userSpaceOnUse" x1="180.4513" y1="706.6436" x2="254.4374" y2="706.6436">
		<stop  offset="0" style="stop-color:#CF6301"/>
		<stop  offset="0.2667" style="stop-color:#FFD31D"/>
		<stop  offset="0.3477" style="stop-color:#FFF076"/>
		<stop  offset="0.3939" style="stop-color:#FFFFA4"/>
		<stop  offset="0.4223" style="stop-color:#FFF68A"/>
		<stop  offset="0.4825" style="stop-color:#FFDF49"/>
		<stop  offset="0.503" style="stop-color:#FFD731"/>
		<stop  offset="0.6485" style="stop-color:#D97907"/>
		<stop  offset="0.7697" style="stop-color:#FFDE00"/>
		<stop  offset="0.804" style="stop-color:#FDD900"/>
		<stop  offset="0.8461" style="stop-color:#F7CA01"/>
		<stop  offset="0.8922" style="stop-color:#EEB103"/>
		<stop  offset="0.9408" style="stop-color:#E18F05"/>
		<stop  offset="0.9515" style="stop-color:#DE8606"/>
		<stop  offset="1" style="stop-color:#EA9600"/>
	</linearGradient>
	<path class="st30" d="M180.45,688.51h47.95c7.62,0,13.86,1.22,18.73,3.67c4.87,2.44,7.31,5.58,7.31,9.4c0,3.51-2.07,6.26-6.2,8.26
		c-4.14,2-9.85,3-17.15,3h-18.57v3.45l13.28,8.47h-45.35l13.31-8.47v-19.42L180.45,688.51z M212.52,706.05h13.81
		c3.06,0,5.19-0.38,6.38-1.14c1.19-0.76,1.78-2.13,1.78-4.09c0-3.67-2.67-5.5-8-5.5h-13.97V706.05z"/>
	<linearGradient id="SVGID_31_" gradientUnits="userSpaceOnUse" x1="262.0299" y1="706.9489" x2="328.2588" y2="706.9489">
		<stop  offset="0" style="stop-color:#CF6301"/>
		<stop  offset="0.2667" style="stop-color:#FFD31D"/>
		<stop  offset="0.3477" style="stop-color:#FFF076"/>
		<stop  offset="0.3939" style="stop-color:#FFFFA4"/>
		<stop  offset="0.4223" style="stop-color:#FFF68A"/>
		<stop  offset="0.4825" style="stop-color:#FFDF49"/>
		<stop  offset="0.503" style="stop-color:#FFD731"/>
		<stop  offset="0.6485" style="stop-color:#D97907"/>
		<stop  offset="0.7697" style="stop-color:#FFDE00"/>
		<stop  offset="0.804" style="stop-color:#FDD900"/>
		<stop  offset="0.8461" style="stop-color:#F7CA01"/>
		<stop  offset="0.8922" style="stop-color:#EEB103"/>
		<stop  offset="0.9408" style="stop-color:#E18F05"/>
		<stop  offset="0.9515" style="stop-color:#DE8606"/>
		<stop  offset="1" style="stop-color:#EA9600"/>
	</linearGradient>
	<path class="st31" d="M326.21,687.9v17c-5.6-7.26-14.04-10.89-25.34-10.89c-11.32,0-16.98,4.24-16.98,12.72
		c0,4.25,1.53,7.32,4.58,9.22c3.06,1.9,8,2.84,14.84,2.84c6.45,0,11.82-1.04,16.11-3.14c4.29-2.09,6.34-4.65,6.12-7.68
		c0-0.12-0.03-0.29-0.08-0.5c1.86,1.05,2.79,2.52,2.79,4.44c0,4.39-2.69,7.94-8.06,10.64c-5.38,2.7-12.45,4.05-21.21,4.05
		c-10.08,0-18.76-1.87-26.03-5.61c-7.28-3.74-10.92-8.19-10.92-13.36c0-5.26,3.67-9.97,11-14.12c7.33-4.15,15.65-6.23,24.95-6.23
		c8.04,0,15.17,1.52,21.39,4.57L326.21,687.9z"/>
	<linearGradient id="SVGID_32_" gradientUnits="userSpaceOnUse" x1="335.8513" y1="706.6436" x2="407.0214" y2="706.6436">
		<stop  offset="0" style="stop-color:#CF6301"/>
		<stop  offset="0.2667" style="stop-color:#FFD31D"/>
		<stop  offset="0.3477" style="stop-color:#FFF076"/>
		<stop  offset="0.3939" style="stop-color:#FFFFA4"/>
		<stop  offset="0.4223" style="stop-color:#FFF68A"/>
		<stop  offset="0.4825" style="stop-color:#FFDF49"/>
		<stop  offset="0.503" style="stop-color:#FFD731"/>
		<stop  offset="0.6485" style="stop-color:#D97907"/>
		<stop  offset="0.7697" style="stop-color:#FFDE00"/>
		<stop  offset="0.804" style="stop-color:#FDD900"/>
		<stop  offset="0.8461" style="stop-color:#F7CA01"/>
		<stop  offset="0.8922" style="stop-color:#EEB103"/>
		<stop  offset="0.9408" style="stop-color:#E18F05"/>
		<stop  offset="0.9515" style="stop-color:#DE8606"/>
		<stop  offset="1" style="stop-color:#EA9600"/>
	</linearGradient>
	<path class="st32" d="M335.85,688.51h71.17v17.53l-14.21-11.1h-24.92v7.47h13.52l10.52-4.36v17.67l-10.52-5.42h-13.52v6.03
		l13.42,8.45h-45.45l13.31-8.45V696.8L335.85,688.51z"/>
</g>
</svg>
